<mxfile host="app.diagrams.net" modified="2021-09-27T10:29:46.143Z" agent="5.0 (Windows NT 10.0; Win64; x64) AppleWebKit/537.36 (KHTML, like Gecko) Chrome/94.0.4606.61 Safari/537.36" etag="w3K5DA53WKbDMtey9ui6" version="14.9.9" type="github" pages="2">
  <diagram id="C5RBs43oDa-KdzZeNtuy" name="Page-1">
    <mxGraphModel dx="2249" dy="1973" grid="1" gridSize="10" guides="1" tooltips="1" connect="1" arrows="0" fold="1" page="1" pageScale="1" pageWidth="827" pageHeight="1169" math="0" shadow="0">
      <root>
        <mxCell id="WIyWlLk6GJQsqaUBKTNV-0" />
        <mxCell id="WIyWlLk6GJQsqaUBKTNV-1" parent="WIyWlLk6GJQsqaUBKTNV-0" />
        <mxCell id="wGcR4Xtpk954xaqX42pS-20" value="BmCreateStraightRoadBaseCmd" style="swimlane;fontStyle=1;align=center;verticalAlign=top;childLayout=stackLayout;horizontal=1;startSize=26;horizontalStack=0;resizeParent=1;resizeParentMax=0;resizeLast=0;collapsible=1;marginBottom=0;" vertex="1" parent="WIyWlLk6GJQsqaUBKTNV-1">
          <mxGeometry x="-280" y="60" width="430" height="86" as="geometry" />
        </mxCell>
        <mxCell id="wGcR4Xtpk954xaqX42pS-21" value="+ field: type" style="text;strokeColor=none;fillColor=none;align=left;verticalAlign=top;spacingLeft=4;spacingRight=4;overflow=hidden;rotatable=0;points=[[0,0.5],[1,0.5]];portConstraint=eastwest;" vertex="1" parent="wGcR4Xtpk954xaqX42pS-20">
          <mxGeometry y="26" width="430" height="26" as="geometry" />
        </mxCell>
        <mxCell id="wGcR4Xtpk954xaqX42pS-22" value="" style="line;strokeWidth=1;fillColor=none;align=left;verticalAlign=middle;spacingTop=-1;spacingLeft=3;spacingRight=3;rotatable=0;labelPosition=right;points=[];portConstraint=eastwest;" vertex="1" parent="wGcR4Xtpk954xaqX42pS-20">
          <mxGeometry y="52" width="430" height="8" as="geometry" />
        </mxCell>
        <mxCell id="wGcR4Xtpk954xaqX42pS-23" value="+ ExecuteCommand(const CommandParameters&amp; cmdParams): OwnerPtr&lt;IAction&gt;" style="text;strokeColor=none;fillColor=none;align=left;verticalAlign=top;spacingLeft=4;spacingRight=4;overflow=hidden;rotatable=0;points=[[0,0.5],[1,0.5]];portConstraint=eastwest;" vertex="1" parent="wGcR4Xtpk954xaqX42pS-20">
          <mxGeometry y="60" width="430" height="26" as="geometry" />
        </mxCell>
        <mxCell id="wGcR4Xtpk954xaqX42pS-29" value="BmRoad" style="swimlane;fontStyle=1;align=center;verticalAlign=top;childLayout=stackLayout;horizontal=1;startSize=26;horizontalStack=0;resizeParent=1;resizeParentMax=0;resizeLast=0;collapsible=1;marginBottom=0;" vertex="1" parent="WIyWlLk6GJQsqaUBKTNV-1">
          <mxGeometry x="240" y="450" width="320" height="534" as="geometry">
            <mxRectangle x="360" y="420" width="80" height="26" as="alternateBounds" />
          </mxGeometry>
        </mxCell>
        <mxCell id="wGcR4Xtpk954xaqX42pS-30" value="- m_pOwnerElement: IElement*" style="text;strokeColor=none;fillColor=none;align=left;verticalAlign=top;spacingLeft=4;spacingRight=4;overflow=hidden;rotatable=0;points=[[0,0.5],[1,0.5]];portConstraint=eastwest;" vertex="1" parent="wGcR4Xtpk954xaqX42pS-29">
          <mxGeometry y="26" width="320" height="26" as="geometry" />
        </mxCell>
        <mxCell id="jKk1PB0wHjbOU2d1EmL2-29" value="- m_HostTopographyId: ElementId" style="text;strokeColor=none;fillColor=none;align=left;verticalAlign=top;spacingLeft=4;spacingRight=4;overflow=hidden;rotatable=0;points=[[0,0.5],[1,0.5]];portConstraint=eastwest;" vertex="1" parent="wGcR4Xtpk954xaqX42pS-29">
          <mxGeometry y="52" width="320" height="26" as="geometry" />
        </mxCell>
        <mxCell id="jKk1PB0wHjbOU2d1EmL2-43" value="- m_CornerIdAtStart: ElementId" style="text;strokeColor=none;fillColor=none;align=left;verticalAlign=top;spacingLeft=4;spacingRight=4;overflow=hidden;rotatable=0;points=[[0,0.5],[1,0.5]];portConstraint=eastwest;" vertex="1" parent="wGcR4Xtpk954xaqX42pS-29">
          <mxGeometry y="78" width="320" height="26" as="geometry" />
        </mxCell>
        <mxCell id="jKk1PB0wHjbOU2d1EmL2-44" value="- m_CornerIdAtEnd: ElementId" style="text;strokeColor=none;fillColor=none;align=left;verticalAlign=top;spacingLeft=4;spacingRight=4;overflow=hidden;rotatable=0;points=[[0,0.5],[1,0.5]];portConstraint=eastwest;" vertex="1" parent="wGcR4Xtpk954xaqX42pS-29">
          <mxGeometry y="104" width="320" height="26" as="geometry" />
        </mxCell>
        <mxCell id="jKk1PB0wHjbOU2d1EmL2-45" value="- m_CornerIdsAtMiddle: ElementId" style="text;strokeColor=none;fillColor=none;align=left;verticalAlign=top;spacingLeft=4;spacingRight=4;overflow=hidden;rotatable=0;points=[[0,0.5],[1,0.5]];portConstraint=eastwest;" vertex="1" parent="wGcR4Xtpk954xaqX42pS-29">
          <mxGeometry y="130" width="320" height="26" as="geometry" />
        </mxCell>
        <mxCell id="jKk1PB0wHjbOU2d1EmL2-30" value="- m_Thickness: double" style="text;strokeColor=none;fillColor=none;align=left;verticalAlign=top;spacingLeft=4;spacingRight=4;overflow=hidden;rotatable=0;points=[[0,0.5],[1,0.5]];portConstraint=eastwest;" vertex="1" parent="wGcR4Xtpk954xaqX42pS-29">
          <mxGeometry y="156" width="320" height="26" as="geometry" />
        </mxCell>
        <mxCell id="jKk1PB0wHjbOU2d1EmL2-31" value="- m_IsShowCenterline: bool" style="text;strokeColor=none;fillColor=none;align=left;verticalAlign=top;spacingLeft=4;spacingRight=4;overflow=hidden;rotatable=0;points=[[0,0.5],[1,0.5]];portConstraint=eastwest;" vertex="1" parent="wGcR4Xtpk954xaqX42pS-29">
          <mxGeometry y="182" width="320" height="26" as="geometry" />
        </mxCell>
        <mxCell id="jKk1PB0wHjbOU2d1EmL2-32" value="- m_RoadCategoryUid: UniIdentity" style="text;strokeColor=none;fillColor=none;align=left;verticalAlign=top;spacingLeft=4;spacingRight=4;overflow=hidden;rotatable=0;points=[[0,0.5],[1,0.5]];portConstraint=eastwest;" vertex="1" parent="wGcR4Xtpk954xaqX42pS-29">
          <mxGeometry y="208" width="320" height="26" as="geometry" />
        </mxCell>
        <mxCell id="jKk1PB0wHjbOU2d1EmL2-34" value="- m_CenterlineCategoryUid: UniIdentity" style="text;strokeColor=none;fillColor=none;align=left;verticalAlign=top;spacingLeft=4;spacingRight=4;overflow=hidden;rotatable=0;points=[[0,0.5],[1,0.5]];portConstraint=eastwest;" vertex="1" parent="wGcR4Xtpk954xaqX42pS-29">
          <mxGeometry y="234" width="320" height="26" as="geometry" />
        </mxCell>
        <mxCell id="jKk1PB0wHjbOU2d1EmL2-33" value="- m_RoadbedCategoryUid: UniIdentity" style="text;strokeColor=none;fillColor=none;align=left;verticalAlign=top;spacingLeft=4;spacingRight=4;overflow=hidden;rotatable=0;points=[[0,0.5],[1,0.5]];portConstraint=eastwest;" vertex="1" parent="wGcR4Xtpk954xaqX42pS-29">
          <mxGeometry y="260" width="320" height="26" as="geometry" />
        </mxCell>
        <mxCell id="jKk1PB0wHjbOU2d1EmL2-37" value="- m_RoadWidth: double" style="text;strokeColor=none;fillColor=none;align=left;verticalAlign=top;spacingLeft=4;spacingRight=4;overflow=hidden;rotatable=0;points=[[0,0.5],[1,0.5]];portConstraint=eastwest;" vertex="1" parent="wGcR4Xtpk954xaqX42pS-29">
          <mxGeometry y="286" width="320" height="26" as="geometry" />
        </mxCell>
        <mxCell id="jKk1PB0wHjbOU2d1EmL2-38" value="- m_BasePolygon: OwnerPtr&lt;IPolygon&gt;" style="text;strokeColor=none;fillColor=none;align=left;verticalAlign=top;spacingLeft=4;spacingRight=4;overflow=hidden;rotatable=0;points=[[0,0.5],[1,0.5]];portConstraint=eastwest;" vertex="1" parent="wGcR4Xtpk954xaqX42pS-29">
          <mxGeometry y="312" width="320" height="26" as="geometry" />
        </mxCell>
        <mxCell id="jKk1PB0wHjbOU2d1EmL2-39" value="- m_RoadGrep: OwnerPtr&lt;IGraphicsElementShape&gt;" style="text;strokeColor=none;fillColor=none;align=left;verticalAlign=top;spacingLeft=4;spacingRight=4;overflow=hidden;rotatable=0;points=[[0,0.5],[1,0.5]];portConstraint=eastwest;" vertex="1" parent="wGcR4Xtpk954xaqX42pS-29">
          <mxGeometry y="338" width="320" height="26" as="geometry" />
        </mxCell>
        <mxCell id="jKk1PB0wHjbOU2d1EmL2-36" value="- m_CenterLineGrep: OwnerPtr&lt;IGraphicsElementShape&gt;" style="text;strokeColor=none;fillColor=none;align=left;verticalAlign=top;spacingLeft=4;spacingRight=4;overflow=hidden;rotatable=0;points=[[0,0.5],[1,0.5]];portConstraint=eastwest;" vertex="1" parent="wGcR4Xtpk954xaqX42pS-29">
          <mxGeometry y="364" width="320" height="26" as="geometry" />
        </mxCell>
        <mxCell id="jKk1PB0wHjbOU2d1EmL2-42" value="- m_CutterGrep: OwnerPtr&lt;IGraphicsElementShape&gt;" style="text;strokeColor=none;fillColor=none;align=left;verticalAlign=top;spacingLeft=4;spacingRight=4;overflow=hidden;rotatable=0;points=[[0,0.5],[1,0.5]];portConstraint=eastwest;" vertex="1" parent="wGcR4Xtpk954xaqX42pS-29">
          <mxGeometry y="390" width="320" height="26" as="geometry" />
        </mxCell>
        <mxCell id="jKk1PB0wHjbOU2d1EmL2-41" value="- m_RoadbedPreCutteeGrep: OwnerPtr&lt;IGraphicsElementShape&gt;" style="text;strokeColor=none;fillColor=none;align=left;verticalAlign=top;spacingLeft=4;spacingRight=4;overflow=hidden;rotatable=0;points=[[0,0.5],[1,0.5]];portConstraint=eastwest;" vertex="1" parent="wGcR4Xtpk954xaqX42pS-29">
          <mxGeometry y="416" width="320" height="26" as="geometry" />
        </mxCell>
        <mxCell id="jKk1PB0wHjbOU2d1EmL2-40" value="- m_RoadbedGrep: OwnerPtr&lt;IGraphicsElementShape&gt;" style="text;strokeColor=none;fillColor=none;align=left;verticalAlign=top;spacingLeft=4;spacingRight=4;overflow=hidden;rotatable=0;points=[[0,0.5],[1,0.5]];portConstraint=eastwest;" vertex="1" parent="wGcR4Xtpk954xaqX42pS-29">
          <mxGeometry y="442" width="320" height="26" as="geometry" />
        </mxCell>
        <mxCell id="jKk1PB0wHjbOU2d1EmL2-35" value="- m_JoinedGrep: OwnerPtr&lt;IGraphicsElementShape&gt;" style="text;strokeColor=none;fillColor=none;align=left;verticalAlign=top;spacingLeft=4;spacingRight=4;overflow=hidden;rotatable=0;points=[[0,0.5],[1,0.5]];portConstraint=eastwest;" vertex="1" parent="wGcR4Xtpk954xaqX42pS-29">
          <mxGeometry y="468" width="320" height="26" as="geometry" />
        </mxCell>
        <mxCell id="wGcR4Xtpk954xaqX42pS-31" value="" style="line;strokeWidth=1;fillColor=none;align=left;verticalAlign=middle;spacingTop=-1;spacingLeft=3;spacingRight=3;rotatable=0;labelPosition=right;points=[];portConstraint=eastwest;" vertex="1" parent="wGcR4Xtpk954xaqX42pS-29">
          <mxGeometry y="494" width="320" height="8" as="geometry" />
        </mxCell>
        <mxCell id="wGcR4Xtpk954xaqX42pS-32" value="+ CreateTempRoad(const BmRoadInput&amp; input): BmRoad*" style="text;strokeColor=none;fillColor=none;align=left;verticalAlign=top;spacingLeft=4;spacingRight=4;overflow=hidden;rotatable=0;points=[[0,0.5],[1,0.5]];portConstraint=eastwest;" vertex="1" parent="wGcR4Xtpk954xaqX42pS-29">
          <mxGeometry y="502" width="320" height="32" as="geometry" />
        </mxCell>
        <mxCell id="jKk1PB0wHjbOU2d1EmL2-0" value="IBmRoad" style="swimlane;fontStyle=3;align=center;verticalAlign=top;childLayout=stackLayout;horizontal=1;startSize=26;horizontalStack=0;resizeParent=1;resizeParentMax=0;resizeLast=0;collapsible=1;marginBottom=0;" vertex="1" collapsed="1" parent="WIyWlLk6GJQsqaUBKTNV-1">
          <mxGeometry x="355" y="340" width="90" height="26" as="geometry">
            <mxRectangle x="355" y="340" width="270" height="90" as="alternateBounds" />
          </mxGeometry>
        </mxCell>
        <mxCell id="jKk1PB0wHjbOU2d1EmL2-2" value="" style="line;strokeWidth=1;fillColor=none;align=left;verticalAlign=middle;spacingTop=-1;spacingLeft=3;spacingRight=3;rotatable=0;labelPosition=right;points=[];portConstraint=eastwest;" vertex="1" parent="jKk1PB0wHjbOU2d1EmL2-0">
          <mxGeometry y="26" width="90" height="8" as="geometry" />
        </mxCell>
        <mxCell id="jKk1PB0wHjbOU2d1EmL2-3" value="+ Create(const BmRoadInput&amp; input): BmRoad*" style="text;strokeColor=none;fillColor=none;align=left;verticalAlign=top;spacingLeft=4;spacingRight=4;overflow=hidden;rotatable=0;points=[[0,0.5],[1,0.5]];portConstraint=eastwest;fontStyle=4" vertex="1" parent="jKk1PB0wHjbOU2d1EmL2-0">
          <mxGeometry y="34" width="90" height="26" as="geometry" />
        </mxCell>
        <mxCell id="jKk1PB0wHjbOU2d1EmL2-9" value="+ GetImplementationUid(): UniIdentity" style="text;strokeColor=none;fillColor=none;align=left;verticalAlign=top;spacingLeft=4;spacingRight=4;overflow=hidden;rotatable=0;points=[[0,0.5],[1,0.5]];portConstraint=eastwest;fontStyle=4" vertex="1" parent="jKk1PB0wHjbOU2d1EmL2-0">
          <mxGeometry y="60" width="90" height="30" as="geometry" />
        </mxCell>
        <mxCell id="jKk1PB0wHjbOU2d1EmL2-4" value="" style="endArrow=block;dashed=1;endFill=0;endSize=12;html=1;exitX=0.5;exitY=0;exitDx=0;exitDy=0;entryX=0.5;entryY=1;entryDx=0;entryDy=0;" edge="1" parent="WIyWlLk6GJQsqaUBKTNV-1" source="wGcR4Xtpk954xaqX42pS-29" target="jKk1PB0wHjbOU2d1EmL2-0">
          <mxGeometry width="160" relative="1" as="geometry">
            <mxPoint x="120" y="480" as="sourcePoint" />
            <mxPoint x="390" y="420" as="targetPoint" />
          </mxGeometry>
        </mxCell>
        <mxCell id="jKk1PB0wHjbOU2d1EmL2-5" value="IExternalObject" style="swimlane;fontStyle=3;align=center;verticalAlign=top;childLayout=stackLayout;horizontal=1;startSize=26;horizontalStack=0;resizeParent=1;resizeParentMax=0;resizeLast=0;collapsible=1;marginBottom=0;" vertex="1" collapsed="1" parent="WIyWlLk6GJQsqaUBKTNV-1">
          <mxGeometry x="340" y="250" width="120" height="26" as="geometry">
            <mxRectangle x="340" y="250" width="120" height="34" as="alternateBounds" />
          </mxGeometry>
        </mxCell>
        <mxCell id="jKk1PB0wHjbOU2d1EmL2-7" value="" style="line;strokeWidth=1;fillColor=none;align=left;verticalAlign=middle;spacingTop=-1;spacingLeft=3;spacingRight=3;rotatable=0;labelPosition=right;points=[];portConstraint=eastwest;" vertex="1" parent="jKk1PB0wHjbOU2d1EmL2-5">
          <mxGeometry y="26" width="120" height="8" as="geometry" />
        </mxCell>
        <mxCell id="jKk1PB0wHjbOU2d1EmL2-10" value="" style="endArrow=block;dashed=1;endFill=0;endSize=12;html=1;entryX=0.5;entryY=1;entryDx=0;entryDy=0;exitX=0.5;exitY=0;exitDx=0;exitDy=0;" edge="1" parent="WIyWlLk6GJQsqaUBKTNV-1" source="jKk1PB0wHjbOU2d1EmL2-0" target="jKk1PB0wHjbOU2d1EmL2-5">
          <mxGeometry width="160" relative="1" as="geometry">
            <mxPoint x="140" y="350" as="sourcePoint" />
            <mxPoint x="300" y="350" as="targetPoint" />
          </mxGeometry>
        </mxCell>
        <mxCell id="jKk1PB0wHjbOU2d1EmL2-12" value="NdbObjectSchematic" style="swimlane;fontStyle=1;align=center;verticalAlign=top;childLayout=stackLayout;horizontal=1;startSize=26;horizontalStack=0;resizeParent=1;resizeParentMax=0;resizeLast=0;collapsible=1;marginBottom=0;" vertex="1" collapsed="1" parent="WIyWlLk6GJQsqaUBKTNV-1">
          <mxGeometry x="185" y="340" width="160" height="26" as="geometry">
            <mxRectangle x="340" y="300" width="340" height="34" as="alternateBounds" />
          </mxGeometry>
        </mxCell>
        <mxCell id="jKk1PB0wHjbOU2d1EmL2-13" value="" style="line;strokeWidth=1;fillColor=none;align=left;verticalAlign=middle;spacingTop=-1;spacingLeft=3;spacingRight=3;rotatable=0;labelPosition=right;points=[];portConstraint=eastwest;" vertex="1" parent="jKk1PB0wHjbOU2d1EmL2-12">
          <mxGeometry y="26" width="160" height="8" as="geometry" />
        </mxCell>
        <mxCell id="jKk1PB0wHjbOU2d1EmL2-14" value="Extends" style="endArrow=block;endSize=16;endFill=0;html=1;entryX=0.5;entryY=1;entryDx=0;entryDy=0;exitX=0.5;exitY=0;exitDx=0;exitDy=0;" edge="1" parent="WIyWlLk6GJQsqaUBKTNV-1" source="wGcR4Xtpk954xaqX42pS-29" target="jKk1PB0wHjbOU2d1EmL2-12">
          <mxGeometry width="160" relative="1" as="geometry">
            <mxPoint x="360" y="413" as="sourcePoint" />
            <mxPoint x="290" y="480" as="targetPoint" />
            <Array as="points">
              <mxPoint x="400" y="400" />
              <mxPoint x="265" y="400" />
            </Array>
          </mxGeometry>
        </mxCell>
        <mxCell id="jKk1PB0wHjbOU2d1EmL2-15" value="NdbObject" style="swimlane;fontStyle=1;align=center;verticalAlign=top;childLayout=stackLayout;horizontal=1;startSize=26;horizontalStack=0;resizeParent=1;resizeParentMax=0;resizeLast=0;collapsible=1;marginBottom=0;" vertex="1" collapsed="1" parent="WIyWlLk6GJQsqaUBKTNV-1">
          <mxGeometry x="217.5" y="250" width="95" height="26" as="geometry">
            <mxRectangle x="217.5" y="250" width="172.5" height="34" as="alternateBounds" />
          </mxGeometry>
        </mxCell>
        <mxCell id="jKk1PB0wHjbOU2d1EmL2-16" value="" style="line;strokeWidth=1;fillColor=none;align=left;verticalAlign=middle;spacingTop=-1;spacingLeft=3;spacingRight=3;rotatable=0;labelPosition=right;points=[];portConstraint=eastwest;" vertex="1" parent="jKk1PB0wHjbOU2d1EmL2-15">
          <mxGeometry y="26" width="95" height="8" as="geometry" />
        </mxCell>
        <mxCell id="jKk1PB0wHjbOU2d1EmL2-17" value="Extends" style="endArrow=block;endSize=16;endFill=0;html=1;entryX=0.5;entryY=1;entryDx=0;entryDy=0;exitX=0.5;exitY=0;exitDx=0;exitDy=0;" edge="1" parent="WIyWlLk6GJQsqaUBKTNV-1" source="jKk1PB0wHjbOU2d1EmL2-12" target="jKk1PB0wHjbOU2d1EmL2-15">
          <mxGeometry width="160" relative="1" as="geometry">
            <mxPoint x="90" y="430" as="sourcePoint" />
            <mxPoint x="250" y="430" as="targetPoint" />
          </mxGeometry>
        </mxCell>
        <mxCell id="jKk1PB0wHjbOU2d1EmL2-20" value="IBmElementCutComponent" style="swimlane;fontStyle=3;align=center;verticalAlign=top;childLayout=stackLayout;horizontal=1;startSize=26;horizontalStack=0;resizeParent=1;resizeParentMax=0;resizeLast=0;collapsible=1;marginBottom=0;" vertex="1" collapsed="1" parent="WIyWlLk6GJQsqaUBKTNV-1">
          <mxGeometry x="470" y="250" width="190" height="26" as="geometry">
            <mxRectangle x="470" y="250" width="190" height="34" as="alternateBounds" />
          </mxGeometry>
        </mxCell>
        <mxCell id="jKk1PB0wHjbOU2d1EmL2-21" value="" style="line;strokeWidth=1;fillColor=none;align=left;verticalAlign=middle;spacingTop=-1;spacingLeft=3;spacingRight=3;rotatable=0;labelPosition=right;points=[];portConstraint=eastwest;" vertex="1" parent="jKk1PB0wHjbOU2d1EmL2-20">
          <mxGeometry y="26" width="190" height="8" as="geometry" />
        </mxCell>
        <mxCell id="jKk1PB0wHjbOU2d1EmL2-22" value="IBmElementStatisticalComponent" style="swimlane;fontStyle=3;align=center;verticalAlign=top;childLayout=stackLayout;horizontal=1;startSize=26;horizontalStack=0;resizeParent=1;resizeParentMax=0;resizeLast=0;collapsible=1;marginBottom=0;" vertex="1" collapsed="1" parent="WIyWlLk6GJQsqaUBKTNV-1">
          <mxGeometry x="890" y="250" width="220" height="26" as="geometry">
            <mxRectangle x="340" y="250" width="340" height="34" as="alternateBounds" />
          </mxGeometry>
        </mxCell>
        <mxCell id="jKk1PB0wHjbOU2d1EmL2-23" value="" style="line;strokeWidth=1;fillColor=none;align=left;verticalAlign=middle;spacingTop=-1;spacingLeft=3;spacingRight=3;rotatable=0;labelPosition=right;points=[];portConstraint=eastwest;" vertex="1" parent="jKk1PB0wHjbOU2d1EmL2-22">
          <mxGeometry y="26" width="220" height="8" as="geometry" />
        </mxCell>
        <mxCell id="jKk1PB0wHjbOU2d1EmL2-24" value="IBmElementBreakComponent" style="swimlane;fontStyle=3;align=center;verticalAlign=top;childLayout=stackLayout;horizontal=1;startSize=26;horizontalStack=0;resizeParent=1;resizeParentMax=0;resizeLast=0;collapsible=1;marginBottom=0;" vertex="1" collapsed="1" parent="WIyWlLk6GJQsqaUBKTNV-1">
          <mxGeometry x="680" y="250" width="200" height="26" as="geometry">
            <mxRectangle x="340" y="250" width="340" height="34" as="alternateBounds" />
          </mxGeometry>
        </mxCell>
        <mxCell id="jKk1PB0wHjbOU2d1EmL2-25" value="" style="line;strokeWidth=1;fillColor=none;align=left;verticalAlign=middle;spacingTop=-1;spacingLeft=3;spacingRight=3;rotatable=0;labelPosition=right;points=[];portConstraint=eastwest;" vertex="1" parent="jKk1PB0wHjbOU2d1EmL2-24">
          <mxGeometry y="26" width="200" height="8" as="geometry" />
        </mxCell>
        <mxCell id="jKk1PB0wHjbOU2d1EmL2-26" value="" style="endArrow=block;dashed=1;endFill=0;endSize=12;html=1;entryX=0.5;entryY=1;entryDx=0;entryDy=0;exitX=0.5;exitY=0;exitDx=0;exitDy=0;" edge="1" parent="WIyWlLk6GJQsqaUBKTNV-1" source="wGcR4Xtpk954xaqX42pS-29" target="jKk1PB0wHjbOU2d1EmL2-20">
          <mxGeometry width="160" relative="1" as="geometry">
            <mxPoint x="520" y="380" as="sourcePoint" />
            <mxPoint x="680" y="380" as="targetPoint" />
            <Array as="points">
              <mxPoint x="400" y="400" />
              <mxPoint x="565" y="400" />
            </Array>
          </mxGeometry>
        </mxCell>
        <mxCell id="jKk1PB0wHjbOU2d1EmL2-27" value="" style="endArrow=block;dashed=1;endFill=0;endSize=12;html=1;entryX=0.5;entryY=1;entryDx=0;entryDy=0;exitX=0.5;exitY=0;exitDx=0;exitDy=0;" edge="1" parent="WIyWlLk6GJQsqaUBKTNV-1" source="wGcR4Xtpk954xaqX42pS-29" target="jKk1PB0wHjbOU2d1EmL2-24">
          <mxGeometry width="160" relative="1" as="geometry">
            <mxPoint x="413.5" y="420" as="sourcePoint" />
            <mxPoint x="578.5" y="276.0000000000001" as="targetPoint" />
            <Array as="points">
              <mxPoint x="400" y="400" />
              <mxPoint x="780" y="400" />
            </Array>
          </mxGeometry>
        </mxCell>
        <mxCell id="jKk1PB0wHjbOU2d1EmL2-28" value="" style="endArrow=block;dashed=1;endFill=0;endSize=12;html=1;entryX=0.5;entryY=1;entryDx=0;entryDy=0;exitX=0.5;exitY=0;exitDx=0;exitDy=0;" edge="1" parent="WIyWlLk6GJQsqaUBKTNV-1" source="wGcR4Xtpk954xaqX42pS-29" target="jKk1PB0wHjbOU2d1EmL2-22">
          <mxGeometry width="160" relative="1" as="geometry">
            <mxPoint x="820" y="400" as="sourcePoint" />
            <mxPoint x="980" y="400" as="targetPoint" />
            <Array as="points">
              <mxPoint x="400" y="400" />
              <mxPoint x="1000" y="400" />
            </Array>
          </mxGeometry>
        </mxCell>
        <mxCell id="jKk1PB0wHjbOU2d1EmL2-46" value="IGenericElement" style="swimlane;fontStyle=3;align=center;verticalAlign=top;childLayout=stackLayout;horizontal=1;startSize=26;horizontalStack=0;resizeParent=1;resizeParentMax=0;resizeLast=0;collapsible=1;marginBottom=0;" vertex="1" collapsed="1" parent="WIyWlLk6GJQsqaUBKTNV-1">
          <mxGeometry x="550" y="20" width="120" height="26" as="geometry">
            <mxRectangle x="340" y="250" width="120" height="34" as="alternateBounds" />
          </mxGeometry>
        </mxCell>
        <mxCell id="jKk1PB0wHjbOU2d1EmL2-47" value="" style="line;strokeWidth=1;fillColor=none;align=left;verticalAlign=middle;spacingTop=-1;spacingLeft=3;spacingRight=3;rotatable=0;labelPosition=right;points=[];portConstraint=eastwest;" vertex="1" parent="jKk1PB0wHjbOU2d1EmL2-46">
          <mxGeometry y="26" width="120" height="8" as="geometry" />
        </mxCell>
        <mxCell id="jKk1PB0wHjbOU2d1EmL2-48" value="IElement" style="swimlane;fontStyle=3;align=center;verticalAlign=top;childLayout=stackLayout;horizontal=1;startSize=26;horizontalStack=0;resizeParent=1;resizeParentMax=0;resizeLast=0;collapsible=1;marginBottom=0;" vertex="1" collapsed="1" parent="WIyWlLk6GJQsqaUBKTNV-1">
          <mxGeometry x="550" y="-40" width="120" height="26" as="geometry">
            <mxRectangle x="340" y="250" width="120" height="34" as="alternateBounds" />
          </mxGeometry>
        </mxCell>
        <mxCell id="jKk1PB0wHjbOU2d1EmL2-49" value="" style="line;strokeWidth=1;fillColor=none;align=left;verticalAlign=middle;spacingTop=-1;spacingLeft=3;spacingRight=3;rotatable=0;labelPosition=right;points=[];portConstraint=eastwest;" vertex="1" parent="jKk1PB0wHjbOU2d1EmL2-48">
          <mxGeometry y="26" width="120" height="8" as="geometry" />
        </mxCell>
        <mxCell id="jKk1PB0wHjbOU2d1EmL2-50" value="" style="endArrow=block;dashed=1;endFill=0;endSize=12;html=1;entryX=0.5;entryY=1;entryDx=0;entryDy=0;exitX=0.5;exitY=0;exitDx=0;exitDy=0;" edge="1" parent="WIyWlLk6GJQsqaUBKTNV-1" source="jKk1PB0wHjbOU2d1EmL2-46" target="jKk1PB0wHjbOU2d1EmL2-48">
          <mxGeometry width="160" relative="1" as="geometry">
            <mxPoint x="700" as="sourcePoint" />
            <mxPoint x="860" as="targetPoint" />
          </mxGeometry>
        </mxCell>
        <mxCell id="jKk1PB0wHjbOU2d1EmL2-51" value="GenericElement" style="swimlane;fontStyle=1;align=center;verticalAlign=top;childLayout=stackLayout;horizontal=1;startSize=26;horizontalStack=0;resizeParent=1;resizeParentMax=0;resizeLast=0;collapsible=1;marginBottom=0;" vertex="1" collapsed="1" parent="WIyWlLk6GJQsqaUBKTNV-1">
          <mxGeometry x="550" y="80" width="120" height="26" as="geometry">
            <mxRectangle x="340" y="250" width="120" height="34" as="alternateBounds" />
          </mxGeometry>
        </mxCell>
        <mxCell id="jKk1PB0wHjbOU2d1EmL2-52" value="" style="line;strokeWidth=1;fillColor=none;align=left;verticalAlign=middle;spacingTop=-1;spacingLeft=3;spacingRight=3;rotatable=0;labelPosition=right;points=[];portConstraint=eastwest;" vertex="1" parent="jKk1PB0wHjbOU2d1EmL2-51">
          <mxGeometry y="26" width="120" height="8" as="geometry" />
        </mxCell>
        <mxCell id="jKk1PB0wHjbOU2d1EmL2-53" value="" style="endArrow=block;dashed=1;endFill=0;endSize=12;html=1;exitX=0.5;exitY=0;exitDx=0;exitDy=0;entryX=0.5;entryY=1;entryDx=0;entryDy=0;" edge="1" parent="WIyWlLk6GJQsqaUBKTNV-1" source="jKk1PB0wHjbOU2d1EmL2-51" target="jKk1PB0wHjbOU2d1EmL2-46">
          <mxGeometry width="160" relative="1" as="geometry">
            <mxPoint x="670" y="60" as="sourcePoint" />
            <mxPoint x="830" y="60" as="targetPoint" />
          </mxGeometry>
        </mxCell>
      </root>
    </mxGraphModel>
  </diagram>
  <diagram id="qh51QRLCLV0HOylv0jYm" name="第 2 页">
    <mxGraphModel dx="2591" dy="804" grid="1" gridSize="10" guides="1" tooltips="1" connect="1" arrows="1" fold="1" page="1" pageScale="1" pageWidth="1169" pageHeight="827" math="1" shadow="0">
      <root>
        <mxCell id="TnBwT_4QDotXtWG4S8T4-0" />
        <mxCell id="TnBwT_4QDotXtWG4S8T4-1" parent="TnBwT_4QDotXtWG4S8T4-0" />
        <mxCell id="YnaeGf6ShbPAtdZjC_IJ-4" value="" style="edgeStyle=orthogonalEdgeStyle;rounded=0;orthogonalLoop=1;jettySize=auto;html=1;startSize=26;" edge="1" parent="TnBwT_4QDotXtWG4S8T4-1" source="ZJxuDmS2PmB86CqZunjh-0" target="ZJxuDmS2PmB86CqZunjh-3">
          <mxGeometry relative="1" as="geometry" />
        </mxCell>
        <mxCell id="ZJxuDmS2PmB86CqZunjh-0" value="&lt;p style=&quot;line-height: 100%&quot;&gt;组合埋点&lt;/p&gt;&lt;p style=&quot;line-height: 100%&quot;&gt;&lt;br&gt;&lt;/p&gt;" style="rounded=1;whiteSpace=wrap;html=1;absoluteArcSize=1;arcSize=14;strokeWidth=2;startSize=26;verticalAlign=top;opacity=90;" vertex="1" parent="TnBwT_4QDotXtWG4S8T4-1">
          <mxGeometry x="55" y="180" width="100" height="50" as="geometry" />
        </mxCell>
        <mxCell id="YnaeGf6ShbPAtdZjC_IJ-2" value="" style="edgeStyle=orthogonalEdgeStyle;rounded=0;orthogonalLoop=1;jettySize=auto;html=1;startSize=26;" edge="1" parent="TnBwT_4QDotXtWG4S8T4-1" source="ZJxuDmS2PmB86CqZunjh-1" target="ZJxuDmS2PmB86CqZunjh-2">
          <mxGeometry relative="1" as="geometry" />
        </mxCell>
        <mxCell id="ZJxuDmS2PmB86CqZunjh-1" value="&lt;p style=&quot;line-height: 120%&quot;&gt;start&lt;/p&gt;" style="strokeWidth=2;html=1;shape=mxgraph.flowchart.start_1;whiteSpace=wrap;startSize=26;verticalAlign=top;" vertex="1" parent="TnBwT_4QDotXtWG4S8T4-1">
          <mxGeometry x="30" y="20" width="150" height="50" as="geometry" />
        </mxCell>
        <mxCell id="YnaeGf6ShbPAtdZjC_IJ-3" value="" style="edgeStyle=orthogonalEdgeStyle;rounded=0;orthogonalLoop=1;jettySize=auto;html=1;startSize=26;" edge="1" parent="TnBwT_4QDotXtWG4S8T4-1" source="ZJxuDmS2PmB86CqZunjh-2" target="ZJxuDmS2PmB86CqZunjh-0">
          <mxGeometry relative="1" as="geometry" />
        </mxCell>
        <mxCell id="ZJxuDmS2PmB86CqZunjh-2" value="&lt;p style=&quot;line-height: 100%&quot;&gt;进入创建道路命令&lt;br&gt;&lt;/p&gt;" style="rounded=1;whiteSpace=wrap;html=1;absoluteArcSize=1;arcSize=14;strokeWidth=2;startSize=26;verticalAlign=top;opacity=90;" vertex="1" parent="TnBwT_4QDotXtWG4S8T4-1">
          <mxGeometry x="55" y="100" width="100" height="50" as="geometry" />
        </mxCell>
        <mxCell id="YnaeGf6ShbPAtdZjC_IJ-5" value="" style="edgeStyle=orthogonalEdgeStyle;rounded=0;orthogonalLoop=1;jettySize=auto;html=1;startSize=26;" edge="1" parent="TnBwT_4QDotXtWG4S8T4-1" source="ZJxuDmS2PmB86CqZunjh-3" target="YnaeGf6ShbPAtdZjC_IJ-1">
          <mxGeometry relative="1" as="geometry" />
        </mxCell>
        <mxCell id="ZJxuDmS2PmB86CqZunjh-3" value="&lt;p style=&quot;line-height: 100%&quot;&gt;检查运行环境&lt;span&gt;（视图）&lt;/span&gt;&lt;/p&gt;&lt;p style=&quot;line-height: 100%&quot;&gt;&lt;br&gt;&lt;/p&gt;" style="rounded=1;whiteSpace=wrap;html=1;absoluteArcSize=1;arcSize=14;strokeWidth=2;startSize=26;verticalAlign=top;opacity=90;" vertex="1" parent="TnBwT_4QDotXtWG4S8T4-1">
          <mxGeometry x="37.5" y="260" width="135" height="50" as="geometry" />
        </mxCell>
        <mxCell id="YnaeGf6ShbPAtdZjC_IJ-17" style="edgeStyle=orthogonalEdgeStyle;rounded=0;orthogonalLoop=1;jettySize=auto;html=1;exitX=0.5;exitY=1;exitDx=0;exitDy=0;entryX=0.5;entryY=0;entryDx=0;entryDy=0;startSize=26;" edge="1" parent="TnBwT_4QDotXtWG4S8T4-1" source="ZJxuDmS2PmB86CqZunjh-4" target="ZJxuDmS2PmB86CqZunjh-5">
          <mxGeometry relative="1" as="geometry" />
        </mxCell>
        <mxCell id="ZJxuDmS2PmB86CqZunjh-4" value="&lt;p style=&quot;line-height: 100%&quot;&gt;创建临时道路数据&lt;/p&gt;&lt;p style=&quot;line-height: 100%&quot;&gt;&lt;br&gt;&lt;/p&gt;" style="rounded=1;whiteSpace=wrap;html=1;absoluteArcSize=1;arcSize=14;strokeWidth=2;startSize=26;verticalAlign=top;opacity=90;" vertex="1" parent="TnBwT_4QDotXtWG4S8T4-1">
          <mxGeometry x="50" y="550" width="110" height="50" as="geometry" />
        </mxCell>
        <mxCell id="YnaeGf6ShbPAtdZjC_IJ-16" value="" style="edgeStyle=orthogonalEdgeStyle;rounded=0;orthogonalLoop=1;jettySize=auto;html=1;startSize=26;" edge="1" parent="TnBwT_4QDotXtWG4S8T4-1" source="ZJxuDmS2PmB86CqZunjh-5" target="ZJxuDmS2PmB86CqZunjh-6">
          <mxGeometry relative="1" as="geometry" />
        </mxCell>
        <mxCell id="ZJxuDmS2PmB86CqZunjh-5" value="&lt;p style=&quot;line-height: 100%&quot;&gt;设置预设参数&lt;/p&gt;&lt;p style=&quot;line-height: 100%&quot;&gt;&lt;br&gt;&lt;/p&gt;" style="rounded=1;whiteSpace=wrap;html=1;absoluteArcSize=1;arcSize=14;strokeWidth=2;startSize=26;verticalAlign=top;opacity=90;" vertex="1" parent="TnBwT_4QDotXtWG4S8T4-1">
          <mxGeometry x="50" y="640" width="110" height="50" as="geometry" />
        </mxCell>
        <mxCell id="YnaeGf6ShbPAtdZjC_IJ-18" style="edgeStyle=orthogonalEdgeStyle;rounded=0;orthogonalLoop=1;jettySize=auto;html=1;exitX=0.5;exitY=1;exitDx=0;exitDy=0;entryX=0.5;entryY=0;entryDx=0;entryDy=0;startSize=26;" edge="1" parent="TnBwT_4QDotXtWG4S8T4-1" source="ZJxuDmS2PmB86CqZunjh-6" target="ZJxuDmS2PmB86CqZunjh-8">
          <mxGeometry relative="1" as="geometry" />
        </mxCell>
        <mxCell id="ZJxuDmS2PmB86CqZunjh-6" value="&lt;p style=&quot;line-height: 100%&quot;&gt;&lt;/p&gt;创建 Action 绘制带偏移的直线 Element，初始化Action的回调函数" style="rounded=1;whiteSpace=wrap;html=1;absoluteArcSize=1;arcSize=14;strokeWidth=2;startSize=26;verticalAlign=top;opacity=90;" vertex="1" parent="TnBwT_4QDotXtWG4S8T4-1">
          <mxGeometry x="40" y="730" width="130" height="70" as="geometry" />
        </mxCell>
        <mxCell id="YnaeGf6ShbPAtdZjC_IJ-24" value="" style="edgeStyle=orthogonalEdgeStyle;rounded=0;orthogonalLoop=1;jettySize=auto;html=1;startSize=26;" edge="1" parent="TnBwT_4QDotXtWG4S8T4-1" source="ZJxuDmS2PmB86CqZunjh-8" target="YnaeGf6ShbPAtdZjC_IJ-0">
          <mxGeometry relative="1" as="geometry" />
        </mxCell>
        <mxCell id="ZJxuDmS2PmB86CqZunjh-8" value="&lt;p style=&quot;line-height: 100%&quot;&gt;&lt;/p&gt;更新属性面板" style="rounded=1;whiteSpace=wrap;html=1;absoluteArcSize=1;arcSize=14;strokeWidth=2;startSize=26;verticalAlign=top;opacity=90;" vertex="1" parent="TnBwT_4QDotXtWG4S8T4-1">
          <mxGeometry x="40" y="840" width="130" height="50" as="geometry" />
        </mxCell>
        <mxCell id="YnaeGf6ShbPAtdZjC_IJ-26" value="" style="edgeStyle=orthogonalEdgeStyle;rounded=0;orthogonalLoop=1;jettySize=auto;html=1;startSize=26;" edge="1" parent="TnBwT_4QDotXtWG4S8T4-1" source="YnaeGf6ShbPAtdZjC_IJ-0" target="YnaeGf6ShbPAtdZjC_IJ-25">
          <mxGeometry relative="1" as="geometry" />
        </mxCell>
        <mxCell id="YnaeGf6ShbPAtdZjC_IJ-0" value="&lt;p style=&quot;line-height: 100%&quot;&gt;开始绘制直线Action&lt;/p&gt;&lt;p style=&quot;line-height: 100%&quot;&gt;&lt;br&gt;&lt;/p&gt;" style="rounded=1;whiteSpace=wrap;html=1;absoluteArcSize=1;arcSize=14;strokeWidth=2;startSize=26;verticalAlign=top;opacity=90;" vertex="1" parent="TnBwT_4QDotXtWG4S8T4-1">
          <mxGeometry x="55" y="920" width="100" height="60" as="geometry" />
        </mxCell>
        <mxCell id="YnaeGf6ShbPAtdZjC_IJ-10" value="yes" style="edgeStyle=orthogonalEdgeStyle;rounded=0;orthogonalLoop=1;jettySize=auto;html=1;startSize=26;" edge="1" parent="TnBwT_4QDotXtWG4S8T4-1" source="YnaeGf6ShbPAtdZjC_IJ-1" target="YnaeGf6ShbPAtdZjC_IJ-9">
          <mxGeometry relative="1" as="geometry" />
        </mxCell>
        <mxCell id="YnaeGf6ShbPAtdZjC_IJ-19" value="no" style="edgeStyle=orthogonalEdgeStyle;rounded=0;orthogonalLoop=1;jettySize=auto;html=1;exitX=1;exitY=0.5;exitDx=0;exitDy=0;exitPerimeter=0;entryX=1;entryY=0.5;entryDx=0;entryDy=0;startSize=26;" edge="1" parent="TnBwT_4QDotXtWG4S8T4-1" source="YnaeGf6ShbPAtdZjC_IJ-1" target="ZJxuDmS2PmB86CqZunjh-4">
          <mxGeometry relative="1" as="geometry" />
        </mxCell>
        <mxCell id="YnaeGf6ShbPAtdZjC_IJ-1" value="&lt;br&gt;是否已经选中构件" style="strokeWidth=2;html=1;shape=mxgraph.flowchart.decision;whiteSpace=wrap;startSize=26;verticalAlign=top;opacity=90;" vertex="1" parent="TnBwT_4QDotXtWG4S8T4-1">
          <mxGeometry x="5" y="340" width="200" height="60" as="geometry" />
        </mxCell>
        <mxCell id="YnaeGf6ShbPAtdZjC_IJ-13" value="yes" style="edgeStyle=orthogonalEdgeStyle;rounded=0;orthogonalLoop=1;jettySize=auto;html=1;startSize=26;entryX=0.5;entryY=0;entryDx=0;entryDy=0;" edge="1" parent="TnBwT_4QDotXtWG4S8T4-1" source="YnaeGf6ShbPAtdZjC_IJ-9" target="ZJxuDmS2PmB86CqZunjh-4">
          <mxGeometry relative="1" as="geometry" />
        </mxCell>
        <mxCell id="YnaeGf6ShbPAtdZjC_IJ-20" value="no" style="edgeStyle=orthogonalEdgeStyle;rounded=0;orthogonalLoop=1;jettySize=auto;html=1;exitX=0;exitY=0.5;exitDx=0;exitDy=0;exitPerimeter=0;entryX=1;entryY=0.5;entryDx=0;entryDy=0;startSize=26;" edge="1" parent="TnBwT_4QDotXtWG4S8T4-1" source="YnaeGf6ShbPAtdZjC_IJ-9" target="YnaeGf6ShbPAtdZjC_IJ-11">
          <mxGeometry relative="1" as="geometry" />
        </mxCell>
        <mxCell id="YnaeGf6ShbPAtdZjC_IJ-9" value="&lt;br&gt;选中的是否是地形" style="strokeWidth=2;html=1;shape=mxgraph.flowchart.decision;whiteSpace=wrap;startSize=26;verticalAlign=top;opacity=90;" vertex="1" parent="TnBwT_4QDotXtWG4S8T4-1">
          <mxGeometry x="5" y="440" width="200" height="60" as="geometry" />
        </mxCell>
        <mxCell id="YnaeGf6ShbPAtdZjC_IJ-23" style="edgeStyle=orthogonalEdgeStyle;rounded=0;orthogonalLoop=1;jettySize=auto;html=1;exitX=0.5;exitY=1;exitDx=0;exitDy=0;startSize=26;" edge="1" parent="TnBwT_4QDotXtWG4S8T4-1" source="YnaeGf6ShbPAtdZjC_IJ-11" target="YnaeGf6ShbPAtdZjC_IJ-22">
          <mxGeometry relative="1" as="geometry" />
        </mxCell>
        <mxCell id="YnaeGf6ShbPAtdZjC_IJ-11" value="&lt;p style=&quot;line-height: 100%&quot;&gt;提示只能在地形上面创建道路&lt;/p&gt;&lt;p style=&quot;line-height: 100%&quot;&gt;&lt;br&gt;&lt;/p&gt;" style="rounded=1;whiteSpace=wrap;html=1;absoluteArcSize=1;arcSize=14;strokeWidth=2;startSize=26;verticalAlign=top;opacity=90;" vertex="1" parent="TnBwT_4QDotXtWG4S8T4-1">
          <mxGeometry x="-160" y="437.5" width="110" height="65" as="geometry" />
        </mxCell>
        <mxCell id="YnaeGf6ShbPAtdZjC_IJ-22" value="&lt;br&gt;end" style="strokeWidth=2;html=1;shape=mxgraph.flowchart.terminator;whiteSpace=wrap;startSize=26;verticalAlign=top;opacity=90;" vertex="1" parent="TnBwT_4QDotXtWG4S8T4-1">
          <mxGeometry x="-155" y="570" width="100" height="60" as="geometry" />
        </mxCell>
        <mxCell id="YnaeGf6ShbPAtdZjC_IJ-25" value="&lt;p style=&quot;line-height: 100%&quot;&gt;绘制完一条线，创建道路&lt;/p&gt;&lt;p style=&quot;line-height: 100%&quot;&gt;&lt;br&gt;&lt;/p&gt;" style="rounded=1;whiteSpace=wrap;html=1;absoluteArcSize=1;arcSize=14;strokeWidth=2;startSize=26;verticalAlign=top;opacity=90;" vertex="1" parent="TnBwT_4QDotXtWG4S8T4-1">
          <mxGeometry x="55" y="1020" width="100" height="60" as="geometry" />
        </mxCell>
      </root>
    </mxGraphModel>
  </diagram>
</mxfile>
